<svg xmlns="http://www.w3.org/2000/svg" width="960" height="640" viewBox="0 0 960 640">
  <rect width="960" height="640" fill="#0f172a"/>
  <rect x="300" y="42" width="360" height="70" rx="14" fill="#111827" stroke="#475569" stroke-width="2"/>
  <text x="480" y="84" text-anchor="middle" dominant-baseline="middle" font-family="Arial, sans-serif" font-size="24" font-weight="700" fill="#f8fafc">STAGE</text>

  <path id="zone-vip-left" d="M170 150 L430 150 L390 290 L120 300 Z" fill="#facc15" stroke="#f8fafc" stroke-width="3" opacity="0.92"/>
  <text x="270" y="228" text-anchor="middle" dominant-baseline="middle" font-family="Arial, sans-serif" font-size="22" font-weight="700" fill="#1f2937">VIP LEFT</text>

  <path id="zone-vip-right" d="M530 150 L790 150 L840 300 L570 290 Z" fill="#facc15" stroke="#f8fafc" stroke-width="3" opacity="0.92"/>
  <text x="690" y="228" text-anchor="middle" dominant-baseline="middle" font-family="Arial, sans-serif" font-size="22" font-weight="700" fill="#1f2937">VIP RIGHT</text>

  <rect id="zone-platinum-center" x="410" y="160" width="140" height="150" rx="18" fill="#c084fc" stroke="#f8fafc" stroke-width="3" opacity="0.94"/>
  <text x="480" y="224" text-anchor="middle" dominant-baseline="middle" font-family="Arial, sans-serif" font-size="18" font-weight="700" fill="#ffffff">PLATINUM</text>
  <text x="480" y="250" text-anchor="middle" dominant-baseline="middle" font-family="Arial, sans-serif" font-size="18" font-weight="700" fill="#ffffff">CENTER</text>

  <path id="zone-ga-left" d="M90 330 L390 318 L370 500 L58 538 Z" fill="#38bdf8" stroke="#e0f2fe" stroke-width="3" opacity="0.88"/>
  <text x="230" y="430" text-anchor="middle" dominant-baseline="middle" font-family="Arial, sans-serif" font-size="24" font-weight="700" fill="#082f49">GA LEFT</text>

  <path id="zone-ga-right" d="M570 318 L870 330 L902 538 L590 500 Z" fill="#38bdf8" stroke="#e0f2fe" stroke-width="3" opacity="0.88"/>
  <text x="730" y="430" text-anchor="middle" dominant-baseline="middle" font-family="Arial, sans-serif" font-size="24" font-weight="700" fill="#082f49">GA RIGHT</text>

  <rect id="zone-standing-floor" x="390" y="330" width="180" height="190" rx="18" fill="#34d399" stroke="#d1fae5" stroke-width="3" opacity="0.9"/>
  <text x="480" y="410" text-anchor="middle" dominant-baseline="middle" font-family="Arial, sans-serif" font-size="21" font-weight="700" fill="#064e3b">STANDING</text>
  <text x="480" y="438" text-anchor="middle" dominant-baseline="middle" font-family="Arial, sans-serif" font-size="21" font-weight="700" fill="#064e3b">FLOOR</text>

  <rect id="zone-balcony" x="180" y="555" width="600" height="50" rx="16" fill="#fb7185" stroke="#ffe4e6" stroke-width="3" opacity="0.9"/>
  <text x="480" y="581" text-anchor="middle" dominant-baseline="middle" font-family="Arial, sans-serif" font-size="22" font-weight="700" fill="#ffffff">BALCONY</text>

  <line x1="480" y1="112" x2="480" y2="535" stroke="#64748b" stroke-width="2" stroke-dasharray="8 10" opacity="0.55"/>
  <text x="74" y="602" font-family="Arial, sans-serif" font-size="14" fill="#94a3b8">Test seating map: upload this file, then configure detected zones by element ID.</text>
</svg>
